<svg xmlns="http://www.w3.org/2000/svg" width="300" height="200"><path fill="#FEF9F3" d="M148.7 17.4l-11.9 45.8 45.8-11.9z"/><path fill="#F37056" d="M173.8 42.4l-16.2-16.2-3.2 12-23.9 6.2 6.3 18.8 18.8 6.3 6.2-23.9z"/><circle fill="#506576" cx="176" cy="24" r="10.7"/><circle fill="#FFF" cx="180" cy="24" r="4"/><circle fill="#F26F31" cx="180" cy="24" r="2"/><circle fill="#FEF9F3" cx="180" cy="24" r="4"/><circle fill="#F37056" cx="180" cy="24" r="2"/><path fill="#506576" d="M188.3 107.8c6.8-6.8 10.5-15.8 10.5-25.4 0-9.6-3.7-18.7-10.5-25.5l-5.6-5.6-45.8 11.9 11.9-45.8-5.6-5.7-.3.3.2-.2c-14-14-36.9-14-50.9 0l-14 13.9L89.4 37l14-13.9c7.8-7.8 20.5-7.8 28.3 0l-89.9 89.8L1 72v127h127l-40.8-40.9L177 68.3c3.7 3.8 5.8 8.8 5.8 14.1 0 5.4-2.1 10.4-5.8 14.1l-13.9 14 11.4 11.3 13.8-14c0 .1 0 0 0 0zM278.5 155.9l-18.8-18.8c-5.1-5.1-13-6.2-19.3-2.5l-3.9-14.6 3.1-3.1c4-4 10.2-4 14.1 0l7 7 5.7-5.7-7-7c-7-7-18.4-7-25.5 0l-22.6 22.6c-7 7-7 18.4 0 25.5l7 7 5.7-5.7-7-7c-4-4-4-10.2 0-14.1l3-3 14.6 3.9c-3.6 6.2-2.6 14.2 2.5 19.3l18.8 18.8-20.4 20.4H299v-63.5l-20.5 20.5z"/><circle fill="#506576" cx="217.5" cy="117.4" r="5.3"/><circle fill="#FEF9F3" cx="217.5" cy="115.4" r="2"/><circle fill="#F37056" cx="217.5" cy="115.4" r="1"/><path fill="#F37056" d="M229.7 115.5c.8.8.8 2 0 2.8s-2 .8-2.8 0l2.8-2.8zM218.4 126.8c.8.8.8 2 0 2.8s-2 .8-2.8 0l2.8-2.8z"/><circle fill="#FEF9F3" cx="230.4" cy="120.5" r="2"/><circle fill="#F37056" cx="230.4" cy="124.7" r="2"/><circle fill="#FEF9F3" cx="228.3" cy="128.2" r="2"/><circle fill="#F37056" cx="224.7" cy="130.3" r="2"/><circle fill="#FEF9F3" cx="220.6" cy="130.3" r="2"/></svg>